<svg version="1.1" id="Layer_1" xmlns="http://www.w3.org/2000/svg" xmlns:xlink="http://www.w3.org/1999/xlink" x="0px" y="0px"
	 viewBox="0 0 40 40" style="enable-background:new 0 0 40 40;" xml:space="preserve">
<style type="text/css">
	.st0{fill:#e5e5e5;}
	.st1{fill:#000000;}
</style>
<g id="Layer_1_00000170272533137955777160000002433085014129164421_">
</g>
<circle class="st0" cx="20" cy="20" r="19.9"/>
<g id="Layer_2_00000164513921192746989810000009281721502725689523_">
	<g>
		<path class="st1" d="M29.8,20.5C29.8,20.5,29.8,20.5,29.8,20.5C29.8,20.4,29.8,20.4,29.8,20.5c0.1-0.1,0.1-0.1,0.1-0.1
			c0,0,0,0,0,0c0,0,0,0,0-0.1c0,0,0,0,0,0c0,0,0,0,0-0.1c0,0,0,0,0,0c0,0,0,0,0-0.1c0,0,0,0,0,0c0-0.1,0-0.1,0-0.2c0,0,0,0,0,0
			c0,0,0,0,0-0.1c0,0,0,0,0,0c0,0,0,0,0,0c0,0,0,0,0,0c0,0,0,0,0,0c0,0,0,0,0,0c0,0,0,0,0,0c0,0,0,0,0,0c0,0,0,0,0,0c0,0,0,0,0,0
			c0,0,0,0,0,0c0,0,0,0-0.1-0.1l-6.3-6.3c-0.3-0.3-0.9-0.3-1.2,0c-0.3,0.3-0.3,0.9,0,1.2l4.8,4.8h-16c-0.5,0-0.9,0.4-0.9,0.9
			s0.4,0.9,0.9,0.9h16l-4.8,4.8c-0.3,0.3-0.3,0.9,0,1.2c0.2,0.2,0.4,0.3,0.6,0.3c0.2,0,0.5-0.1,0.6-0.3l6.3-6.3
			C29.7,20.6,29.8,20.5,29.8,20.5C29.8,20.5,29.8,20.5,29.8,20.5z"/>
	</g>
</g>
</svg>
