<?xml version="1.0" encoding="utf-8"?>
<!-- Generator: Adobe Illustrator 28.1.0, SVG Export Plug-In . SVG Version: 6.00 Build 0)  -->
<svg version="1.1" id="Layer_1" xmlns="http://www.w3.org/2000/svg" xmlns:xlink="http://www.w3.org/1999/xlink" x="0px" y="0px"
	 viewBox="0 0 40 40" style="enable-background:new 0 0 40 40;" xml:space="preserve">
<style type="text/css">
	.st0{fill:#FF9800;}
</style>
<g id="Layer_1_00000170272533137955777160000002433085014129164421_">
</g>
<circle cx="20" cy="20" r="19.9"/>
<g id="Layer_2_00000164513921192746989810000009281721502725689523_">
	<g>
		<path class="st0" d="M19.5,29.8C19.5,29.8,19.5,29.8,19.5,29.8C19.6,29.8,19.6,29.8,19.5,29.8c0.1,0.1,0.1,0.1,0.1,0.1
			c0,0,0,0,0,0c0,0,0,0,0.1,0c0,0,0,0,0,0c0,0,0,0,0.1,0c0,0,0,0,0,0c0,0,0,0,0.1,0c0,0,0,0,0,0c0.1,0,0.1,0,0.2,0c0,0,0,0,0,0
			c0,0,0,0,0.1,0c0,0,0,0,0,0c0,0,0,0,0,0c0,0,0,0,0,0c0,0,0,0,0,0c0,0,0,0,0,0c0,0,0,0,0,0c0,0,0,0,0,0c0,0,0,0,0,0c0,0,0,0,0,0
			c0,0,0,0,0,0c0,0,0,0,0.1-0.1l6.3-6.3c0.3-0.3,0.3-0.9,0-1.2s-0.9-0.3-1.2,0L20.9,27v-16c0-0.5-0.4-0.9-0.9-0.9s-0.9,0.4-0.9,0.9
			v16l-4.8-4.8c-0.3-0.3-0.9-0.3-1.2,0c-0.2,0.2-0.3,0.4-0.3,0.6c0,0.2,0.1,0.5,0.3,0.6l6.3,6.3C19.4,29.7,19.5,29.8,19.5,29.8
			C19.5,29.8,19.5,29.8,19.5,29.8z"/>
	</g>
</g>
</svg>
